<?xml version="1.0" encoding="UTF-8"?>
<svg version="1.1" xmlns="http://www.w3.org/2000/svg" width="1024" height="1024">
<path d="M0 0 C337.92 0 675.84 0 1024 0 C1024 337.92 1024 675.84 1024 1024 C686.08 1024 348.16 1024 0 1024 C0 686.08 0 348.16 0 0 Z " fill="#FAFAFA" transform="translate(0,0)"/>
<path d="M0 0 C1.03528839 0.00140488 1.03528839 0.00140488 2.0914917 0.00283813 C48.64803509 0.13983663 94.96108006 17.90574915 128.36181641 50.70947266 C129.85153336 52.16457857 131.36564031 53.58950793 132.88671875 55.01171875 C166.7684129 87.16452958 187.50763014 136.71704499 189.0012207 183.10791016 C189.56546561 209.75892759 186.43858047 233.30734899 179.875 259.1875 C179.545 260.5075 179.215 261.8275 178.875 263.1875 C189.27 268.1375 189.27 268.1375 199.875 273.1875 C198.45407173 277.4502848 195.26759544 279.09662659 191.75 281.625 C190.27711182 282.70494218 188.80579278 283.78702726 187.3359375 284.87109375 C186.58795898 285.42265137 185.83998047 285.97420898 185.06933594 286.54248047 C181.77407445 289.0128267 178.57304936 291.59328413 175.375 294.1875 C169.61061237 298.84800398 163.73582809 303.33316283 157.78735352 307.75561523 C153.40614199 311.01926325 149.09128087 314.35342948 144.8125 317.75 C139.7991726 321.72214242 134.71463246 325.5844806 129.5625 329.375 C128.90950928 329.85718994 128.25651855 330.33937988 127.58374023 330.83618164 C122.99879268 334.1875 122.99879268 334.1875 121.875 334.1875 C121.55709419 313.66545699 122.07909278 293.19655618 122.8125 272.6875 C122.87784943 270.8146936 122.87784943 270.8146936 122.94451904 268.90405273 C123.07163129 265.30042951 123.20451027 261.697073 123.33984375 258.09375 C123.39773827 256.4703772 123.39773827 256.4703772 123.45680237 254.81420898 C123.67650553 249.21505935 124.08004987 243.73509548 124.875 238.1875 C129.83257898 239.73576599 134.51310401 241.70530938 139.25 243.8125 C139.98605469 244.13734375 140.72210938 244.4621875 141.48046875 244.796875 C143.27970969 245.59134503 145.07750496 246.38908771 146.875 247.1875 C146.99875 246.23617187 147.1225 245.28484375 147.25 244.3046875 C148.04507518 238.73636169 149.25830554 233.2485019 150.4140625 227.74609375 C152.58420077 217.17071847 153.08135865 206.98496102 153.0625 196.1875 C153.06156342 195.49708618 153.06062683 194.80667236 153.05966187 194.09533691 C152.92635486 148.77620805 135.15309406 109.48676354 104.875 76.1875 C104.1634375 75.39214844 103.451875 74.59679687 102.71875 73.77734375 C92.95259267 63.4289732 80.74827491 54.27658684 67.875 48.1875 C68.36226562 48.61675781 68.84953125 49.04601562 69.3515625 49.48828125 C82.75980786 62.04327463 92.59840904 77.92833553 100.875 94.1875 C101.22755859 94.86425781 101.58011719 95.54101562 101.94335938 96.23828125 C112.51998811 116.6771698 118.37673815 138.52079117 121.875 161.1875 C122.04189331 162.26076538 122.04189331 162.26076538 122.2121582 163.35571289 C125.07358218 184.91006267 123.69818626 208.09150946 118.875 229.1875 C118.69308105 230.01556152 118.51116211 230.84362305 118.32373047 231.69677734 C107.61399693 279.52210216 78.14581294 322.01852621 37.0625 348.8125 C19.56688213 359.8795526 -0.61007997 370.35039419 -21.125 374.1875 C-22.115 373.8575 -23.105 373.5275 -24.125 373.1875 C-23.17882812 372.66542969 -22.23265625 372.14335938 -21.2578125 371.60546875 C12.35023845 352.95106403 43.64278873 331.34173325 66.875 300.1875 C67.50019531 299.35734375 68.12539063 298.5271875 68.76953125 297.671875 C97.07940961 258.6877802 109.84672695 208.53502771 102.35327148 160.78442383 C96.54668358 127.7780506 82.886433 98.61118701 59.875 74.1875 C58.95847656 73.17429687 58.95847656 73.17429687 58.0234375 72.140625 C39.26070916 52.1802757 10.72249416 39.92572169 -16.4375 38.97265625 C-55.63753854 38.07891894 -90.13839313 53.78212148 -118.40234375 80.5625 C-119.30082031 81.42875 -120.19929688 82.295 -121.125 83.1875 C-122.36443359 84.3321875 -122.36443359 84.3321875 -123.62890625 85.5 C-130.24881224 91.79050457 -135.68794786 98.84602528 -141.14453125 106.13671875 C-141.65878662 106.81065674 -142.17304199 107.48459473 -142.70288086 108.17895508 C-144.16020266 110.13864672 -144.16020266 110.13864672 -145.18969727 112.2487793 C-146.34239304 114.36352549 -147.21764228 115.70399955 -149.125 117.1875 C-153.26004147 118.04190433 -157.23840396 117.84833006 -161.4375 117.625 C-162.55962891 117.59341797 -163.68175781 117.56183594 -164.83789062 117.52929688 C-167.60293172 117.44693395 -170.36262302 117.33198575 -173.125 117.1875 C-170.68073147 110.75464478 -167.99016569 104.62852111 -164.625 98.625 C-164.19485596 97.85760498 -163.76471191 97.09020996 -163.3215332 96.29956055 C-138.09686873 52.2004021 -97.15920933 19.83951708 -48.36279297 5.77709961 C-32.44323751 1.44446711 -16.46163645 -0.02885065 0 0 Z " fill="#01244A" transform="translate(348.125,277.8125)"/>
<path d="M0 0 C-1.33922645 31.38471745 -3.56625706 62.68279978 -6 94 C-7.43679533 93.53096424 -8.87275078 93.0593552 -10.30834961 92.58666992 C-11.5079557 92.19314583 -11.5079557 92.19314583 -12.73179626 91.79167175 C-15.46408721 90.83801952 -17.9974488 89.64921682 -20.5625 88.3125 C-21.40941406 87.87550781 -22.25632813 87.43851562 -23.12890625 86.98828125 C-23.74636719 86.66214844 -24.36382812 86.33601563 -25 86 C-28.50738792 98.85420361 -30.94925636 111.83797766 -33 125 C-33.10820068 125.69303223 -33.21640137 126.38606445 -33.32788086 127.10009766 C-38.17093911 161.41193406 -29.77708179 199.99617324 -13 230 C-12.46221924 230.97042236 -12.46221924 230.97042236 -11.91357422 231.96044922 C-7.03454584 240.6728459 -1.62359586 248.48941826 5 256 C6.09634766 257.26070312 6.09634766 257.26070312 7.21484375 258.546875 C9.44107058 261.06654122 11.70799327 263.54009499 14 266 C14.74636719 266.81210937 15.49273437 267.62421875 16.26171875 268.4609375 C28.33326375 281.11111854 43.32701425 291.61139244 60 297 C59.41734375 296.55011719 58.8346875 296.10023438 58.234375 295.63671875 C37.74198281 279.55856827 21.41138627 261.011128 8.02783203 238.6953125 C7.0992708 237.16373787 6.12816825 235.65815324 5.15234375 234.15625 C4.77207031 233.4446875 4.39179688 232.733125 4 232 C4.33 231.34 4.66 230.68 5 230 C5.55945313 230.26554688 6.11890625 230.53109375 6.6953125 230.8046875 C11.99780088 233.14051035 16.38884285 234.18419189 22.1875 234.5625 C28.33381522 235.3191738 28.33381522 235.3191738 31.1328125 238.1796875 C32.27831257 240.06043877 33.35862199 241.98207747 34.37890625 243.93359375 C47.0132526 267.83229709 73.53017838 284.08581323 98.50585938 292.12084961 C122.279214 299.3721323 148.51657155 297.81303984 170.60009766 286.07519531 C172.4122461 285.06994995 174.20736799 284.03955107 176 283 C176.98097656 282.45601562 177.96195313 281.91203125 178.97265625 281.3515625 C186.39154304 276.97495303 192.46739616 271.29945953 198.61816406 265.33496094 C199.72817421 264.26260484 200.85724226 263.20999243 201.9921875 262.1640625 C210.97915388 253.69309419 220.48998637 242.02002726 226 231 C226.66 231.33 227.32 231.66 228 232 C220.40183368 257.2963342 208.84726481 279.48356654 191 299 C190.52836426 299.51691406 190.05672852 300.03382813 189.57080078 300.56640625 C168.22771689 323.63688501 137.70103205 338.56581088 106.15649414 340.14208984 C77.87782036 341.00814484 52.80532839 335.71167735 28 322 C27.36465332 321.65066406 26.72930664 321.30132813 26.07470703 320.94140625 C6.82335208 310.21838682 -10.700747 295.60612853 -24 278 C-24.85654981 276.9060769 -25.71333202 275.81233575 -26.5703125 274.71875 C-51.30581952 242.63557797 -67.8500636 200.55928524 -68.23828125 159.77734375 C-68.2480751 158.92255936 -68.25786896 158.06777496 -68.26795959 157.18708801 C-68.43524794 138.80837604 -68.44323903 120.95277814 -64 103 C-63.75910645 102.02111816 -63.51821289 101.04223633 -63.27001953 100.03369141 C-60.88736829 90.56231104 -58.16366406 81.23957518 -55 72 C-55.6612085 71.70754395 -56.32241699 71.41508789 -57.00366211 71.11376953 C-59.98461079 69.7908276 -62.96106385 68.45806147 -65.9375 67.125 C-66.97841797 66.66480469 -68.01933594 66.20460938 -69.09179688 65.73046875 C-70.08115234 65.28574219 -71.07050781 64.84101563 -72.08984375 64.3828125 C-73.46450806 63.77010498 -73.46450806 63.77010498 -74.86694336 63.14501953 C-77 62 -77 62 -78 60 C-76.9584375 59.21238281 -75.916875 58.42476563 -74.84375 57.61328125 C-67.38789846 51.95472851 -59.99203302 46.24312347 -52.75 40.3125 C-47.06512838 35.6581062 -41.31806097 31.11737903 -35.4765625 26.66015625 C-31.2949821 23.46933786 -27.14915197 20.2327961 -23 17 C-20.72309518 15.22848575 -18.44583392 13.45743076 -16.16845703 11.68652344 C-14.76022925 10.5912704 -13.35233238 9.49559172 -11.94482422 8.39941406 C-10.11092108 6.972177 -8.27462035 5.5480921 -6.4375 4.125 C-5.40496094 3.32320313 -4.37242187 2.52140625 -3.30859375 1.6953125 C-1 0 -1 0 0 0 Z " fill="#01244A" transform="translate(151,327)"/>
<path d="M0 0 C7.12534784 5.04115103 11.289358 11.14952707 13.57421875 19.57421875 C14.61120407 28.22336006 13.88790883 36.89942157 8.7578125 44.13671875 C3.43598115 50.38201636 -2.67358731 54.95879505 -9.42578125 59.57421875 C-4.47578125 64.52421875 0.47421875 69.47421875 5.57421875 74.57421875 C7.68536616 71.75935553 9.38461699 69.28258558 11.0546875 66.24609375 C11.45324951 65.52518555 11.85181152 64.80427734 12.26245117 64.06152344 C12.75720947 63.15821289 13.25196777 62.25490234 13.76171875 61.32421875 C15.34984375 58.43671875 16.93796875 55.54921875 18.57421875 52.57421875 C27.81421875 52.57421875 37.05421875 52.57421875 46.57421875 52.57421875 C43.50907296 60.54359781 40.65402038 67.85649275 36.63671875 75.26171875 C35.99138184 76.47807007 35.99138184 76.47807007 35.33300781 77.71899414 C32.57867005 82.86762214 29.65779674 87.85303067 26.33984375 92.6640625 C25.31929539 94.57369831 25.31929539 94.57369831 26.33813477 96.48168945 C27.58553623 98.59337777 28.89476483 100.19394473 30.5859375 101.96484375 C31.17592529 102.5882666 31.76591309 103.21168945 32.3737793 103.85400391 C32.99679932 104.5041748 33.61981934 105.1543457 34.26171875 105.82421875 C35.53333382 107.1698346 36.80417568 108.51618159 38.07421875 109.86328125 C38.98494141 110.82669434 38.98494141 110.82669434 39.9140625 111.80957031 C41.89336032 113.91344747 43.84264015 116.04025533 45.76171875 118.19921875 C46.25027344 118.74835938 46.73882813 119.2975 47.2421875 119.86328125 C48.89519793 121.98650286 50.20451365 124.26061383 51.57421875 126.57421875 C46.59404627 126.79805103 41.61684528 126.96060974 36.6328125 127.06860352 C34.94088715 127.11364618 33.24930792 127.1749061 31.55859375 127.25317383 C17.46648267 127.88881445 17.46648267 127.88881445 12.6328125 124.53076172 C10.65133791 122.30160281 9.03745917 120.16770194 7.57421875 117.57421875 C4.55999629 119.05206569 1.77722921 120.70160782 -1.05078125 122.51171875 C-14.41580791 130.59381452 -32.95612411 132.09206649 -48.078125 128.66796875 C-55.3883627 126.68097189 -61.96971731 123.96639436 -67.42578125 118.57421875 C-68.35970703 117.69636719 -68.35970703 117.69636719 -69.3125 116.80078125 C-77.37648567 108.51702239 -79.03412259 99.25105015 -78.89648438 88.0690918 C-78.66197807 82.16464726 -77.78155806 77.54277188 -74.42578125 72.57421875 C-73.96300781 71.83171875 -73.50023437 71.08921875 -73.0234375 70.32421875 C-68.46217332 63.72209553 -62.3904198 59.45285661 -55.42578125 55.57421875 C-54.76578125 55.57421875 -54.10578125 55.57421875 -53.42578125 55.57421875 C-54.05226563 54.70539063 -54.67875 53.8365625 -55.32421875 52.94140625 C-56.15013071 51.77762122 -56.97562969 50.61354304 -57.80078125 49.44921875 C-58.41953125 48.59457031 -58.41953125 48.59457031 -59.05078125 47.72265625 C-65.29807012 38.85553657 -65.74871883 29.12272106 -64.42578125 18.57421875 C-61.95882704 9.93518898 -57.18488486 4.0186333 -49.42578125 -0.42578125 C-34.41456698 -7.61176635 -14.68724529 -8.63259989 0 0 Z " fill="#01244A" transform="translate(777.42578125,420.42578125)"/>
<path d="M0 0 C7.81898249 5.99859854 13.23134613 15.9533055 14.82421875 25.6015625 C14.82421875 27.9115625 14.82421875 30.2215625 14.82421875 32.6015625 C3.27421875 32.6015625 -8.27578125 32.6015625 -20.17578125 32.6015625 C-21.16578125 29.9615625 -22.15578125 27.3215625 -23.17578125 24.6015625 C-25.96097238 19.49537877 -29.92449203 18.06222433 -35.2421875 16.33203125 C-43.70120257 14.22572523 -50.50825187 15.59474593 -58.17578125 19.6015625 C-65.55626096 24.14339617 -69.07247917 32.27711935 -71.32421875 40.45703125 C-74.63540933 54.72466647 -72.46174989 71.53123152 -65.30078125 84.2890625 C-61.93617638 89.34446628 -57.90723779 93.33265543 -52.17578125 95.6015625 C-41.26858507 96.69355187 -32.88413685 95.5677529 -24.23828125 88.6015625 C-19.75711883 84.70305713 -19.16994616 81.56655194 -18.17578125 75.6015625 C-32.03578125 75.1065625 -32.03578125 75.1065625 -46.17578125 74.6015625 C-46.17578125 65.6915625 -46.17578125 56.7815625 -46.17578125 47.6015625 C-25.38578125 47.6015625 -4.59578125 47.6015625 16.82421875 47.6015625 C16.82421875 72.0215625 16.82421875 96.4415625 16.82421875 121.6015625 C7.91421875 121.6015625 -0.99578125 121.6015625 -10.17578125 121.6015625 C-10.67078125 115.6615625 -10.67078125 115.6615625 -11.17578125 109.6015625 C-12.41328125 110.6534375 -13.65078125 111.7053125 -14.92578125 112.7890625 C-25.25790327 120.81432709 -37.58131179 124.00692794 -50.48828125 123.9140625 C-51.31787354 123.90842285 -52.14746582 123.9027832 -53.00219727 123.89697266 C-67.91446209 123.60392105 -81.08391198 118.46824972 -91.92578125 108.078125 C-105.95764047 92.63333551 -110.07883249 72.16420096 -109.4609375 51.890625 C-108.47902982 33.46034109 -101.09277305 15.39711968 -87.609375 2.6640625 C-62.74706528 -18.4070443 -26.53412368 -17.05424825 0 0 Z " fill="#01254B" transform="translate(668.17578125,426.3984375)"/>
<path d="M0 0 C7.35403816 5.64190067 13.23803482 15.46212174 14.82421875 24.6015625 C14.82421875 27.2415625 14.82421875 29.8815625 14.82421875 32.6015625 C3.27421875 32.6015625 -8.27578125 32.6015625 -20.17578125 32.6015625 C-21.49578125 29.3015625 -22.81578125 26.0015625 -24.17578125 22.6015625 C-29.02496266 17.34828264 -35.56532349 15.45675527 -42.55078125 15.1015625 C-49.4012599 15.32959508 -55.00256586 17.58530185 -59.9921875 22.328125 C-69.92380881 34.4252878 -69.94673625 49.79867379 -69.17578125 64.6015625 C-68.1698797 74.69433308 -65.32511173 85.22621062 -57.55078125 92.1640625 C-51.42983087 97.05251382 -43.60392526 96.26665789 -36.17578125 95.6015625 C-30.33732576 93.81139994 -25.20680553 91.0574062 -22.17578125 85.6015625 C-21.18578125 82.3015625 -20.19578125 79.0015625 -19.17578125 75.6015625 C-26.76578125 75.6015625 -34.35578125 75.6015625 -42.17578125 75.6015625 C-42.17578125 67.0215625 -42.17578125 58.4415625 -42.17578125 49.6015625 C-23.03578125 49.6015625 -3.89578125 49.6015625 15.82421875 49.6015625 C15.82421875 73.3615625 15.82421875 97.1215625 15.82421875 121.6015625 C6.91421875 121.6015625 -1.99578125 121.6015625 -11.17578125 121.6015625 C-11.67078125 115.6615625 -11.67078125 115.6615625 -12.17578125 109.6015625 C-13.26890625 110.6534375 -14.36203125 111.7053125 -15.48828125 112.7890625 C-27.42335082 123.22432687 -42.03366417 124.61310134 -57.17578125 123.6015625 C-71.28452999 121.80738636 -84.04954703 114.12707753 -93.10546875 103.29296875 C-102.9706207 90.06181002 -105.5501648 76.09185248 -105.54638672 59.94433594 C-105.55074611 57.86829618 -105.58714445 55.79441408 -105.625 53.71875 C-105.77888025 35.57878613 -99.53802683 18.82389186 -87.625 5.0703125 C-63.83583981 -18.90855391 -27.15140537 -17.45099304 0 0 Z " fill="#01244B" transform="translate(236.17578125,426.3984375)"/>
<path d="M0 0 C11.88 0 23.76 0 36 0 C36 33.66 36 67.32 36 102 C55.8 102 75.6 102 96 102 C96 111.24 96 120.48 96 130 C64.32 130 32.64 130 0 130 C0 87.1 0 44.2 0 0 Z " fill="#00254B" transform="translate(835,417)"/>
<path d="M0 0 C4.13413208 2.78813559 6.76069112 6.24250457 8.6875 10.8125 C9.62823511 17.85707453 8.99727579 24.03440942 4.6875 29.8125 C0.93592073 33.66027361 -2.49461918 34.18182349 -7.6875 34.5 C-13.59925747 34.31758006 -16.79246427 33.01122182 -20.85546875 28.734375 C-24.66356329 23.71136558 -25.15014661 17.92421786 -24.3125 11.8125 C-22.57949458 6.50107258 -20.07848824 2.86762066 -15.3125 -0.1875 C-10.1060264 -1.9229912 -5.16315911 -1.85094383 0 0 Z " fill="#041C40" transform="translate(667.3125,573.1875)"/>
<path d="M0 0 C2.31 0 4.62 0 7 0 C7.67466746 3.22754814 8.33830569 6.45726935 9 9.6875 C9.19078125 10.59951172 9.3815625 11.51152344 9.578125 12.45117188 C9.75859375 13.33740234 9.9390625 14.22363281 10.125 15.13671875 C10.29257812 15.94842529 10.46015625 16.76013184 10.6328125 17.59643555 C11.0153713 20.10061865 11.06298509 22.47075502 11 25 C11.66 25 12.32 25 13 25 C13.0825 23.845 13.165 22.69 13.25 21.5 C14.03684285 14.18353585 16.1274578 7.09824136 18 0 C20.64 0 23.28 0 26 0 C26.21934204 0.99181274 26.21934204 0.99181274 26.44311523 2.00366211 C27.10411032 4.98246623 27.77072745 7.95998403 28.4375 10.9375 C28.66759766 11.97841797 28.89769531 13.01933594 29.13476562 14.09179688 C29.35712891 15.08115234 29.57949219 16.07050781 29.80859375 17.08984375 C30.01282959 18.00628662 30.21706543 18.92272949 30.42749023 19.86694336 C30.80081947 21.96736505 30.80081947 21.96736505 32 23 C33.65 15.41 35.3 7.82 37 0 C39.31 0 41.62 0 44 0 C43.04289794 4.16695047 42.08409611 8.33350808 41.125 12.5 C40.85558594 13.67304687 40.58617187 14.84609375 40.30859375 16.0546875 C38.92731144 22.05147413 37.52030124 28.03687668 36 34 C33.36 34 30.72 34 28 34 C23.77676538 17.29157175 23.77676538 17.29157175 22 9 C18.84783473 21.46385547 18.84783473 21.46385547 16 34 C13.36 34 10.72 34 8 34 C5.86517074 26.09658956 3.76481054 18.1849163 1.75 10.25 C1.57500977 9.57130859 1.40001953 8.89261719 1.21972656 8.19335938 C0.50971724 5.37332234 0 2.92195529 0 0 Z " fill="#061B3D" transform="translate(682,573)"/>
<path d="M0 0 C2.31 0 4.62 0 7 0 C7.67864775 3.01826782 8.34069713 6.0399527 9 9.0625 C9.19078125 9.91005859 9.3815625 10.75761719 9.578125 11.63085938 C10.63919111 16.53829014 11.21796119 20.98008123 11 26 C11.66 26 12.32 26 13 26 C13.0825 24.865625 13.165 23.73125 13.25 22.5625 C14.07398844 14.91293567 16.15973715 7.45520437 18 0 C20.64 0 23.28 0 26 0 C27.98 7.92 29.96 15.84 32 24 C33.65 16.08 35.3 8.16 37 0 C39.31 0 41.62 0 44 0 C42.5688709 7.61633681 40.78212254 15.11513468 38.875 22.625 C38.59785156 23.72457031 38.32070313 24.82414063 38.03515625 25.95703125 C37.35894034 28.63857711 36.68051724 31.31954312 36 34 C33.36 34 30.72 34 28 34 C26.02 25.75 24.04 17.5 22 9 C20.02 17.25 18.04 25.5 16 34 C13.36 34 10.72 34 8 34 C5.86517074 26.09658956 3.76481054 18.1849163 1.75 10.25 C1.57500977 9.57130859 1.40001953 8.89261719 1.21972656 8.19335938 C0.50971724 5.37332234 0 2.92195529 0 0 Z " fill="#071E41" transform="translate(744,573)"/>
<path d="M0 0 C3.19301645 1.31868622 5.27279951 3.60443369 7.63574219 6.04321289 C8.14059143 6.55230698 8.64544067 7.06140106 9.16558838 7.58592224 C10.77220698 9.20929784 12.3680654 10.84280364 13.96386719 12.47680664 C15.05301703 13.58100714 16.14285324 14.68453109 17.23339844 15.78735352 C19.90157479 18.48855954 22.56015009 21.19889727 25.21386719 23.91430664 C19.26228962 30.1373244 15.02403418 30.99402487 6.65136719 31.28930664 C1.09659313 31.2000221 -1.75253698 30.73560796 -5.78613281 26.91430664 C-9.52141005 22.66381875 -10.13388933 18.76184354 -10.07128906 13.26196289 C-9.48295688 8.41829657 -6.78875911 5.16758951 -3.78613281 1.41430664 C-1.78613281 -0.08569336 -1.78613281 -0.08569336 0 0 Z " fill="#F9FAFA" transform="translate(740.7861328125,494.085693359375)"/>
<path d="M0 0 C3.196875 -0.061875 6.39375 -0.12375 9.6875 -0.1875 C11.18543091 -0.22846802 11.18543091 -0.22846802 12.71362305 -0.27026367 C17.60045592 -0.31605465 21.08380688 -0.29406875 25 3 C26.60646029 6.21292058 26.62441428 9.5258652 26 13 C23.5 16 23.5 16 21 18 C21.61875 18.598125 22.2375 19.19625 22.875 19.8125 C25.84734546 24.27101819 26.30217898 28.75716052 27 34 C24.69 34 22.38 34 20 34 C19.79503906 33.14535156 19.59007812 32.29070313 19.37890625 31.41015625 C19.10949219 30.30542969 18.84007812 29.20070313 18.5625 28.0625 C18.29566406 26.96035156 18.02882813 25.85820313 17.75390625 24.72265625 C17.27004275 22.10578746 17.27004275 22.10578746 16 21 C14.31816052 20.76712992 12.6287584 20.58735834 10.9375 20.4375 C9.308125 20.293125 7.67875 20.14875 6 20 C6 24.62 6 29.24 6 34 C4.02 34 2.04 34 0 34 C0 22.78 0 11.56 0 0 Z " fill="#021C40" transform="translate(610,573)"/>
<path d="M0 0 C3.89803465 1.32821921 6.47017107 3.28216726 8.9375 6.625 C10 9 10 9 10 11 C6.8125 11.3125 6.8125 11.3125 3 11 C1.7625 9.7315625 1.7625 9.7315625 0.5 8.4375 C-1.84334347 5.5956471 -1.84334347 5.5956471 -5.5625 5.9375 C-9.337841 7.10442358 -10.6125977 7.9113305 -13 11 C-13.55777179 14.13428835 -13.55777179 14.13428835 -13.375 17.5 C-13.36210938 18.6240625 -13.34921875 19.748125 -13.3359375 20.90625 C-13.01785249 23.83559106 -12.61768376 25.56773789 -11 28 C-7.80508241 29.59745879 -4.46790611 29.50816842 -1 29 C1.96858157 26.79259319 2.82865791 25.51402627 4 22 C1.36 22 -1.28 22 -4 22 C-4 20.02 -4 18.04 -4 16 C0.62 16 5.24 16 10 16 C10 22.27 10 28.54 10 35 C8.35 35 6.7 35 5 35 C4.67 33.68 4.34 32.36 4 31 C2.824375 31.9590625 2.824375 31.9590625 1.625 32.9375 C-1.78251022 35.61482946 -3.09253458 36.17554273 -7.3125 35.75 C-11.23481902 35.22828128 -13.96260679 34.69026255 -17 32 C-21.61923027 25.9524551 -21.84062018 19.35802104 -21 12 C-19.26384225 6.69507354 -16.3547618 4.24290772 -12 1 C-8.28011318 -0.85994341 -4.05935619 -0.4375354 0 0 Z " fill="#051C3F" transform="translate(589,572)"/>
<path d="M0 0 C2.31 0 4.62 0 7 0 C7 4.29 7 8.58 7 13 C12.28 13 17.56 13 23 13 C23 8.71 23 4.42 23 0 C25.31 0 27.62 0 30 0 C30 11.22 30 22.44 30 34 C27.69 34 25.38 34 23 34 C23 29.05 23 24.1 23 19 C17.72 19 12.44 19 7 19 C7 23.95 7 28.9 7 34 C4.69 34 2.38 34 0 34 C0 22.78 0 11.56 0 0 Z " fill="#092448" transform="translate(844,573)"/>
<path d="M0 0 C2.31 0 4.62 0 7 0 C7.01981934 0.74161377 7.03963867 1.48322754 7.06005859 2.24731445 C7.15522928 5.60273834 7.26494094 8.95753286 7.375 12.3125 C7.4059375 13.47974609 7.436875 14.64699219 7.46875 15.84960938 C7.50742187 16.96787109 7.54609375 18.08613281 7.5859375 19.23828125 C7.6173584 20.26993408 7.6487793 21.30158691 7.68115234 22.36450195 C7.82674629 25.22843236 7.82674629 25.22843236 10 28 C12.43693311 28.36416047 12.43693311 28.36416047 15.125 28.1875 C16.03507813 28.16042969 16.94515625 28.13335938 17.8828125 28.10546875 C18.58148437 28.07066406 19.28015625 28.03585937 20 28 C20.94466756 24.75921875 21.19098828 21.72774345 21.31640625 18.359375 C21.35830078 17.28945313 21.40019531 16.21953125 21.44335938 15.1171875 C21.48267578 14.00601563 21.52199219 12.89484375 21.5625 11.75 C21.60568359 10.62335937 21.64886719 9.49671875 21.69335938 8.3359375 C21.79932015 5.55741046 21.90139142 2.77879609 22 0 C23.98 0 25.96 0 28 0 C28.14564235 4.37464796 28.23419143 8.7486696 28.3125 13.125 C28.35439453 14.3625 28.39628906 15.6 28.43945312 16.875 C28.57760141 27.15323211 28.57760141 27.15323211 25.65234375 30.77734375 C21.34332624 34.38828773 17.9538573 35.23331664 12.4375 34.8125 C8.66450473 34.248136 5.92680683 33.58247661 3 31 C-0.6252338 24.64928922 -0.35364512 18.74082112 -0.1875 11.5625 C-0.17396484 10.44939453 -0.16042969 9.33628906 -0.14648438 8.18945312 C-0.11132997 5.45912788 -0.06212106 2.72982256 0 0 Z " fill="#0A2447" transform="translate(899,573)"/>
<path d="M0 0 C3.53254486 2.60735454 4.22677431 4.82050213 5.625 8.9375 C3.315 8.9375 1.005 8.9375 -1.375 8.9375 C-1.705 7.6175 -2.035 6.2975 -2.375 4.9375 C-5.345 4.9375 -8.315 4.9375 -11.375 4.9375 C-11.705 6.5875 -12.035 8.2375 -12.375 9.9375 C-9.05569558 11.68013482 -5.79204289 13.16778688 -2.25 14.375 C1.20865152 15.67365076 3.55017627 16.73881342 5.625 19.9375 C6.07968446 23.12029123 6.33654438 24.92390026 5.625 27.9375 C3.44925584 30.62855198 1.71434144 32.39282928 -1.375 33.9375 C-3.30859586 34.08601844 -5.24842097 34.15880833 -7.1875 34.1875 C-8.22519531 34.21328125 -9.26289062 34.2390625 -10.33203125 34.265625 C-14.6474636 33.80028955 -17.25345112 32.13639708 -20.1875 29 C-21.375 26.9375 -21.375 26.9375 -21.375 22.9375 C-19.065 22.9375 -16.755 22.9375 -14.375 22.9375 C-14.08625 23.741875 -13.7975 24.54625 -13.5 25.375 C-12.64237432 28.0701468 -12.64237432 28.0701468 -10.375 28.9375 C-6.32357881 29.19610135 -4.83162331 29.24191554 -1.375 26.9375 C-1.24059222 24.50830135 -1.24059222 24.50830135 -2.375 21.9375 C-5.66762847 20.42059132 -5.66762847 20.42059132 -8.10546875 19.6796875 C-10.41121647 18.9256564 -12.55650233 18.03459305 -14.75 17 C-15.39710938 16.70222656 -16.04421875 16.40445313 -16.7109375 16.09765625 C-18.82999036 14.62028841 -19.4877442 13.34705254 -20.375 10.9375 C-20.29715222 6.57802405 -20.10359395 4.64741205 -16.9375 1.5625 C-11.39892011 -1.94977017 -6.24213419 -1.96511632 0 0 Z " fill="#031638" transform="translate(956.375,573.0625)"/>
<path d="M0 0 C2.3181362 1.89111111 3.66914015 3.33828031 5 6 C5.55941256 11.98141127 5.45873534 16.87594764 2 22 C-1.75047482 24.50031654 -3.55856266 24.53603554 -8 24 C-11.15954305 21.45862841 -12.71540886 19.85377341 -14 16 C-14.40603893 11.39301988 -14.54360209 7.30464502 -12.75 3 C-8.82782625 -1.48248429 -5.72758049 -1.43189512 0 0 Z " fill="#F7F8F9" transform="translate(664,578)"/>
<path d="M0 0 C20.79 0 41.58 0 63 0 C63 24.42 63 48.84 63 74 C54.42 74 45.84 74 37 74 C37 69.71 37 65.42 37 61 C37.33 61 37.66 61 38 61 C38 64.96 38 68.92 38 73 C45.59 73 53.18 73 61 73 C61 49.57 61 26.14 61 2 C41.53 2 22.06 2 2 2 C2 9.59 2 17.18 2 25 C10.91 25 19.82 25 29 25 C29 25.33 29 25.66 29 26 C19.43 26 9.86 26 0 26 C0 17.42 0 8.84 0 0 Z " fill="#1F2B49" transform="translate(622,474)"/>
<path d="M0 0 C2.45243461 1.90063682 3.62927427 3.25854855 5 6 C5.38999063 10.05590253 5.27354224 12.45291553 3.4375 16.125 C0.56469944 19.51343143 -2.2903291 21.57444595 -6 24 C-10.85116125 21.92685417 -12.97501462 18.78849485 -15 14 C-15.85208198 9.84057758 -16.15903473 5.98691667 -13.9609375 2.21875 C-9.83477013 -1.93046858 -5.19017358 -1.65769803 0 0 Z " fill="#F6F7F8" transform="translate(758,438)"/>
<path d="M0 0 C0.99 0.495 0.99 0.495 2 1 C2 42.91 2 84.82 2 128 C30.71 128 59.42 128 89 128 C89 128.33 89 128.66 89 129 C44.945 129.495 44.945 129.495 0 130 C0 87.1 0 44.2 0 0 Z " fill="#162344" transform="translate(835,417)"/>
<path d="M0 0 C9.24 0 18.48 0 28 0 C28 1.65 28 3.3 28 5 C24.37 5 20.74 5 17 5 C17 14.57 17 24.14 17 34 C15.02 34 13.04 34 11 34 C11 24.43 11 14.86 11 5 C7.37 5 3.74 5 0 5 C0 3.35 0 1.7 0 0 Z " fill="#01193C" transform="translate(809,573)"/>
<path d="M0 0 C18.48 0 36.96 0 56 0 C56 23.76 56 47.52 56 72 C47.42 72 38.84 72 30 72 C30 67.71 30 63.42 30 59 C30.33 59 30.66 59 31 59 C31 62.96 31 66.92 31 71 C38.59 71 46.18 71 54 71 C54 48.23 54 25.46 54 2 C45.42 2 36.84 2 28 2 C22.78447508 1.86831858 17.58514558 1.72234762 12.375 1.5 C11.15683594 1.45230469 9.93867188 1.40460938 8.68359375 1.35546875 C5.78884708 1.24150235 2.89436827 1.12313674 0 1 C0 0.67 0 0.34 0 0 Z " fill="#001136" transform="translate(196,476)"/>
<path d="M0 0 C2.31 0 4.62 0 7 0 C7 11.22 7 22.44 7 34 C4.69 34 2.38 34 0 34 C0 22.78 0 11.56 0 0 Z " fill="#0D1E41" transform="translate(795,573)"/>
<path d="M0 0 C0.87269531 -0.01417969 1.74539063 -0.02835938 2.64453125 -0.04296875 C5.33276695 0.20066551 6.92530852 0.73868073 9.1875 2.1875 C10.57300197 4.95850394 10.3752467 7.1209706 10.1875 10.1875 C9.1975 11.6725 9.1975 11.6725 8.1875 13.1875 C9.5075 12.8575 10.8275 12.5275 12.1875 12.1875 C11.1975 13.6725 11.1975 13.6725 10.1875 15.1875 C10.80625 15.785625 11.425 16.38375 12.0625 17 C15.03484546 21.45851819 15.48967898 25.94466052 16.1875 31.1875 C13.8775 31.1875 11.5675 31.1875 9.1875 31.1875 C8.98253906 30.34445312 8.77757812 29.50140625 8.56640625 28.6328125 C8.16228516 26.98925781 8.16228516 26.98925781 7.75 25.3125 C7.48316406 24.22195313 7.21632813 23.13140625 6.94140625 22.0078125 C6.3088522 19.26265279 6.3088522 19.26265279 5.1875 17.1875 C6.5075 17.5175 7.8275 17.8475 9.1875 18.1875 C8.4140625 17.32125 8.4140625 17.32125 7.625 16.4375 C6.1875 14.1875 6.1875 14.1875 6.4375 12.25 C6.685 11.569375 6.9325 10.88875 7.1875 10.1875 C7.94322954 6.71497177 7.94322954 6.71497177 8.1875 3.1875 C3.8975 2.8575 -0.3925 2.5275 -4.8125 2.1875 C-4.8125 5.4875 -4.8125 8.7875 -4.8125 12.1875 C-1.5125 12.1875 1.7875 12.1875 5.1875 12.1875 C5.1875 12.5175 5.1875 12.8475 5.1875 13.1875 C1.5575 13.1875 -2.0725 13.1875 -5.8125 13.1875 C-5.83936553 11.20840602 -5.85883375 9.22921029 -5.875 7.25 C-5.88660156 6.14785156 -5.89820313 5.04570313 -5.91015625 3.91015625 C-5.74759859 -0.62195144 -4.0773442 0.02984879 0 0 Z " fill="#031030" transform="translate(620.8125,575.8125)"/>
<path d="M0 0 C1.98 0 3.96 0 6 0 C6 8.91 6 17.82 6 27 C4.68 26.67 3.36 26.34 2 26 C-0.18703385 26.37907282 -0.18703385 26.37907282 -2 27 C-1.505 25.515 -1.505 25.515 -1 24 C-0.85110253 22.15533558 -0.7520899 20.30642725 -0.68359375 18.45703125 C-0.64169922 17.38388672 -0.59980469 16.31074219 -0.55664062 15.20507812 C-0.51732422 14.08552734 -0.47800781 12.96597656 -0.4375 11.8125 C-0.39431641 10.68134766 -0.35113281 9.55019531 -0.30664062 8.38476562 C-0.20050901 5.58996646 -0.09845615 2.79507838 0 0 Z " fill="#021A3B" transform="translate(921,573)"/>
<path d="M0 0 C0.66 0.33 1.32 0.66 2 1 C-1.3843775 11.69319274 -4.98826336 21.94098248 -10 32 C-11 29 -11 29 -9.5625 25.8125 C-9.046875 24.884375 -8.53125 23.95625 -8 23 C-12.14093698 22.79029441 -12.14093698 22.79029441 -16 24 C-14.59585312 21.00262965 -12.95092714 18.41050076 -10.99609375 15.7421875 C-10.42052734 14.95199219 -9.84496094 14.16179688 -9.25195312 13.34765625 C-8.35379883 12.12369141 -8.35379883 12.12369141 -7.4375 10.875 C-6.24741275 9.24833529 -5.05854939 7.62077425 -3.87109375 5.9921875 C-3.34443115 5.27401855 -2.81776855 4.55584961 -2.27514648 3.81591797 C-0.95121981 2.02578196 -0.95121981 2.02578196 0 0 Z " fill="#05193C" transform="translate(377,558)"/>
<path d="M0 0 C1.77007714 -0.08114106 3.54122098 -0.13925505 5.3125 -0.1875 C6.29863281 -0.22230469 7.28476562 -0.25710938 8.30078125 -0.29296875 C11 0 11 0 12.86328125 1.3515625 C14 3 14 3 13.875 5.5625 C13 8 13 8 10 10 C6.64683663 10.26402861 3.36941342 10.08751723 0 10 C0 6.7 0 3.4 0 0 Z " fill="#F3F5F7" transform="translate(616,578)"/>
<path d="M0 0 C0.66 0 1.32 0 2 0 C2.33 1.65 2.66 3.3 3 5 C3.33 5 3.66 5 4 5 C4 11.27 4 17.54 4 24 C3.67 24 3.34 24 3 24 C2.67 26.64 2.34 29.28 2 32 C1.34 32 0.68 32 0 32 C0 27.05 0 22.1 0 17 C-5.28 17 -10.56 17 -16 17 C-16 16.67 -16 16.34 -16 16 C-11.71 16 -7.42 16 -3 16 C-3 15.34 -3 14.68 -3 14 C-7.29 14 -11.58 14 -16 14 C-16 13.67 -16 13.34 -16 13 C-10.72 13 -5.44 13 0 13 C0 8.71 0 4.42 0 0 Z " fill="#00163D" transform="translate(867,574)"/>
<path d="M0 0 C0 0.66 0 1.32 0 2 C-1.98 2.33 -3.96 2.66 -6 3 C-3.69 3.33 -1.38 3.66 1 4 C1 4.33 1 4.66 1 5 C-0.258125 5.268125 -1.51625 5.53625 -2.8125 5.8125 C-5.9999896 6.6065566 -8.0328454 7.22284057 -10 10 C-11.50156874 13.00313748 -11.09281204 15.79067522 -11.0625 19.125 C-11.05347656 20.40632812 -11.04445313 21.68765625 -11.03515625 23.0078125 C-11.02355469 23.99523437 -11.01195312 24.98265625 -11 26 C-14.09744903 22.90255097 -13.96430774 19.26165593 -14 15 C-13.0625 11.4375 -13.0625 11.4375 -12 9 C-14.49552484 9.78130071 -14.49552484 9.78130071 -17 11 C-17.33 11.99 -17.66 12.98 -18 14 C-17.61124961 8.55749455 -15.83447004 5.83447004 -12 2 C-8.0427223 -0.29105551 -4.50902727 -0.1768246 0 0 Z " fill="#041436" transform="translate(662,572)"/>
<path d="M0 0 C3.53254486 2.60735454 4.22677431 4.82050213 5.625 8.9375 C3.315 8.9375 1.005 8.9375 -1.375 8.9375 C-1.705 7.6175 -2.035 6.2975 -2.375 4.9375 C-5.675 4.6075 -8.975 4.2775 -12.375 3.9375 C-12.045 3.2775 -11.715 2.6175 -11.375 1.9375 C-12.5196875 2.4325 -12.5196875 2.4325 -13.6875 2.9375 C-16.375 3.9375 -16.375 3.9375 -19.375 3.9375 C-12.92375383 -1.32535872 -8.12919019 -2.55918951 0 0 Z " fill="#071B3D" transform="translate(956.375,573.0625)"/>
<path d="M0 0 C0.33 0.66 0.66 1.32 1 2 C1.66 2 2.32 2 3 2 C4.24327778 7.84340558 3.57300962 12.26696495 2 18 C-0.64 18 -3.28 18 -6 18 C-7.46726798 14.18510326 -6.43336419 11.70988378 -5 8 C-3.68 8.33 -2.36 8.66 -1 9 C-0.67 6.03 -0.34 3.06 0 0 Z " fill="#092245" transform="translate(696,589)"/>
<path d="M0 0 C6.14161557 -0.50135637 9.10285091 0.51549007 14 4 C17 8.06451613 17 8.06451613 17 11 C13.8125 11.3125 13.8125 11.3125 10 11 C8.29220027 9.37550757 6.62449243 7.70779973 5 6 C1.81849108 5.12010026 1.81849108 5.12010026 -1 5 C-0.34 4.67 0.32 4.34 1 4 C0.67 2.68 0.34 1.36 0 0 Z " fill="#071737" transform="translate(582,572)"/>
<path d="M0 0 C0.99 0 1.98 0 3 0 C3 10.56 3 21.12 3 32 C2.01 32 1.02 32 0 32 C0 21.44 0 10.88 0 0 Z " fill="#01284F" transform="translate(797,574)"/>
<path d="M0 0 C0.6875 1.8125 0.6875 1.8125 1 4 C-0.49926108 5.89380347 -2.15235687 7.10754603 -4.125 8.5 C-7.13633633 12.51511511 -6.83111093 17.10221688 -7 22 C-7.33 22 -7.66 22 -8 22 C-8 19.36 -8 16.72 -8 14 C-8.99 14 -9.98 14 -11 14 C-11 7.18181818 -11 7.18181818 -9 4 C-3.77777778 0 -3.77777778 0 0 0 Z " fill="#092244" transform="translate(582,572)"/>
<path d="M0 0 C0.33 0 0.66 0 1 0 C0.51679152 6.2054142 -0.33318124 11.99945246 -2 18 C-4.64 18 -7.28 18 -10 18 C-11.67357513 12.62694301 -11.67357513 12.62694301 -12 10 C-10.625 8 -10.625 8 -9 7 C-9.33 8.98 -9.66 10.96 -10 13 C-8.35 12.34 -6.7 11.68 -5 11 C-4.67 8.36 -4.34 5.72 -4 3 C-3.67 3 -3.34 3 -3 3 C-3.33 5.64 -3.66 8.28 -4 11 C-3.34 11 -2.68 11 -2 11 C-1.34 7.37 -0.68 3.74 0 0 Z " fill="#03173A" transform="translate(762,589)"/>
<path d="M0 0 C1.32 0.66 2.64 1.32 4 2 C3.360625 2.433125 2.72125 2.86625 2.0625 3.3125 C-0.26746003 4.91239177 -0.26746003 4.91239177 -1 8 C-0.505 8.66 -0.01 9.32 0.5 10 C0.995 10.66 1.49 11.32 2 12 C1.67 12.99 1.34 13.98 1 15 C-1.3125 15.3125 -1.3125 15.3125 -4 15 C-6.02109518 12.5607472 -6.8601567 10.55937318 -7.625 7.5 C-6.72756941 3.91027762 -4.55127235 2.8654038 -1.53125 0.91796875 C-1.0259375 0.61503906 -0.520625 0.31210937 0 0 Z " fill="#07264B" transform="translate(943,574)"/>
<path d="M0 0 C9.9 0.33 19.8 0.66 30 1 C30 1.33 30 1.66 30 2 C20.76 2 11.52 2 2 2 C2 9.92 2 17.84 2 26 C1.34 26 0.68 26 0 26 C0 17.42 0 8.84 0 0 Z " fill="#23304B" transform="translate(194,476)"/>
<path d="M0 0 C1.32 0.33 2.64 0.66 4 1 C4.66 4.63 5.32 8.26 6 12 C3.69 12 1.38 12 -1 12 C-1.66 8.7 -2.32 5.4 -3 2 C-2.01 1.34 -1.02 0.68 0 0 Z " fill="#0A2649" transform="translate(631,595)"/>
<path d="M0 0 C0.99 0 1.98 0 3 0 C3 10.56 3 21.12 3 32 C2.01 32 1.02 32 0 32 C0 27.38 0 22.76 0 18 C0.33 18 0.66 18 1 18 C1 16.02 1 14.04 1 12 C0.67 12 0.34 12 0 12 C0 8.04 0 4.08 0 0 Z " fill="#012950" transform="translate(869,574)"/>
<path d="M0 0 C0.680625 0.33 1.36125 0.66 2.0625 1 C7.41538487 2.82225868 11.93867683 2.45397487 17 0 C17.66 1.65 18.32 3.3 19 5 C15.72698081 7.96909598 13.61934238 8.34354794 9.25 8.1875 C8.26515625 8.16042969 7.2803125 8.13335938 6.265625 8.10546875 C5.51796875 8.07066406 4.7703125 8.03585937 4 8 C5.32 7.34 6.64 6.68 8 6 C7.4225 5.65066406 6.845 5.30132813 6.25 4.94140625 C5.13625 4.25884766 5.13625 4.25884766 4 3.5625 C3.2575 3.11003906 2.515 2.65757812 1.75 2.19140625 C1.1725 1.79824219 0.595 1.40507813 0 1 C0 0.67 0 0.34 0 0 Z " fill="#051738" transform="translate(651,599)"/>
<path d="M0 0 C7.76123596 7.50252809 7.76123596 7.50252809 8.1953125 12.04296875 C8.13020833 14.02864583 8.06510417 16.01432292 8 18 C7.34 17.01 6.68 16.02 6 15 C5.67 16.65 5.34 18.3 5 20 C2.94550007 16.9182501 2.25524191 14.6904243 1.375 11.125 C0.98441406 9.58199219 0.98441406 9.58199219 0.5859375 8.0078125 C0.04698884 5.24120939 -0.11394368 2.80715804 0 0 Z " fill="#041839" transform="translate(685,583)"/>
<path d="M0 0 C2.31 0 4.62 0 7 0 C6.01 3.96 5.02 7.92 4 12 C1.525 11.01 1.525 11.01 -1 10 C-1.125 3.375 -1.125 3.375 0 0 Z " fill="#041B3C" transform="translate(719,573)"/>
<path d="M0 0 C0.99 0.33 1.98 0.66 3 1 C2.34 2.98 1.68 4.96 1 7 C1.66 7 2.32 7 3 7 C3.08096803 8.45742463 3.13917774 9.91612807 3.1875 11.375 C3.22230469 12.18710937 3.25710938 12.99921875 3.29296875 13.8359375 C3.19628906 14.55007813 3.09960938 15.26421875 3 16 C2.01 16.66 1.02 17.32 0 18 C-0.66 17.67 -1.32 17.34 -2 17 C-2.05441656 15.10448978 -2.09298035 13.2085208 -2.125 11.3125 C-2.14820313 10.25675781 -2.17140625 9.20101562 -2.1953125 8.11328125 C-1.99858729 4.97748141 -1.33057654 2.82354627 0 0 Z " fill="#062245" transform="translate(570,579)"/>
<path d="M0 0 C1.65 1.32 3.3 2.64 5 4 C-10 11 -10 11 -16 9 C-10.72 6.03 -5.44 3.06 0 0 Z " fill="#041739" transform="translate(340,642)"/>
<path d="M0 0 C2.31 0 4.62 0 7 0 C8.25664978 2.90600261 9 4.79604584 9 8 C7.02 8.99 7.02 8.99 5 10 C0 4.5 0 4.5 0 0 Z " fill="#0F2647" transform="translate(935,596)"/>
<path d="M0 0 C0.66 0 1.32 0 2 0 C2 8.91 2 17.82 2 27 C-0.31 26.67 -2.62 26.34 -5 26 C-5 25.67 -5 25.34 -5 25 C-3.35 25 -1.7 25 0 25 C0 16.75 0 8.5 0 0 Z " fill="#071B3F" transform="translate(929,520)"/>
<path d="M0 0 C0.66 0.33 1.32 0.66 2 1 C1.43439084 3.1090001 0.8468289 5.21212137 0.25 7.3125 C-0.07484375 8.48425781 -0.3996875 9.65601563 -0.734375 10.86328125 C-2.05744852 14.14238013 -2.99564358 15.25166654 -6 17 C-6.99 16.01 -7.98 15.02 -9 14 C-8.40251953 13.11248047 -8.40251953 13.11248047 -7.79296875 12.20703125 C-5.09974702 8.19013364 -2.42960803 4.18432495 0 0 Z " fill="#111F3D" transform="translate(377,558)"/>
<path d="M0 0 C3.05890398 1.01963466 4.1269304 1.46389692 6 4 C6.29296875 6.69921875 6.29296875 6.69921875 6.1875 9.6875 C6.16042969 10.68136719 6.13335938 11.67523437 6.10546875 12.69921875 C6.07066406 13.45847656 6.03585937 14.21773437 6 15 C5.01 13.68 4.02 12.36 3 11 C2.34 11.66 1.68 12.32 1 13 C0.92652344 12.04287109 0.92652344 12.04287109 0.8515625 11.06640625 C0.77679687 10.24011719 0.70203125 9.41382813 0.625 8.5625 C0.55539062 7.73878906 0.48578125 6.91507813 0.4140625 6.06640625 C0.27742187 5.38449219 0.14078125 4.70257812 0 4 C-0.66 3.67 -1.32 3.34 -2 3 C-1.34 2.01 -0.68 1.02 0 0 Z " fill="#08284E" transform="translate(670,580)"/>
<path d="M0 0 C0.33 0.66 0.66 1.32 1 2 C1.66 2 2.32 2 3 2 C4.25 8.625 4.25 8.625 2 12 C1.29187186 14.32108669 0.61975848 16.65377147 0 19 C-0.66 19 -1.32 19 -2 19 C-2.24991456 12.34949576 -1.73955334 6.43013467 0 0 Z " fill="#0E2448" transform="translate(760,581)"/>
<path d="M0 0 C1.32435978 3.97307934 0.18129186 6.80974568 -0.9375 10.6875 C-1.13279297 11.38939453 -1.32808594 12.09128906 -1.52929688 12.81445312 C-2.01199136 14.54508944 -2.50500846 16.27284066 -3 18 C-3.1546875 17.0409375 -3.1546875 17.0409375 -3.3125 16.0625 C-3.539375 15.381875 -3.76625 14.70125 -4 14 C-4.99 13.67 -5.98 13.34 -7 13 C-7.125 9.625 -7.125 9.625 -7 6 C-6.34 5.34 -5.68 4.68 -5 4 C-4.01 5.485 -4.01 5.485 -3 7 C-2.01 4.69 -1.02 2.38 0 0 Z " fill="#041234" transform="translate(786,576)"/>
<path d="M0 0 C2.50449125 9.07728288 -1.94440972 17.9971749 -6 26 C-7.19997482 22.40007555 -6.68836502 21.23849244 -5.56640625 17.67578125 C-5.24736328 16.64775391 -4.92832031 15.61972656 -4.59960938 14.56054688 C-4.25736328 13.48869141 -3.91511719 12.41683594 -3.5625 11.3125 C-3.22412109 10.22904297 -2.88574219 9.14558594 -2.53710938 8.02929688 C-1.69918895 5.35031186 -0.85320898 2.6741474 0 0 Z " fill="#091838" transform="translate(449,505)"/>
<path d="M0 0 C-0.639375 0.268125 -1.27875 0.53625 -1.9375 0.8125 C-4.33131686 1.88667752 -4.33131686 1.88667752 -5 5 C-7.875 5.125 -7.875 5.125 -11 5 C-11.66 4.34 -12.32 3.68 -13 3 C-11.35 2.34 -9.7 1.68 -8 1 C-8.33 0.34 -8.66 -0.32 -9 -1 C-3.375 -2.25 -3.375 -2.25 0 0 Z " fill="#173051" transform="translate(591,603)"/>
<path d="M0 0 C0.33 0 0.66 0 1 0 C1.2475 0.94875 1.495 1.8975 1.75 2.875 C2.6857077 6.08693191 2.6857077 6.08693191 5.125 7.375 C5.74375 7.58125 6.3625 7.7875 7 8 C6.67 9.32 6.34 10.64 6 12 C3.6875 12.6875 3.6875 12.6875 1 13 C-0.8125 11.5625 -0.8125 11.5625 -2 10 C-0.68 10 0.64 10 2 10 C1.690625 9.443125 1.38125 8.88625 1.0625 8.3125 C-0.0663002 5.85569956 -0.6384857 3.67520583 -1 1 C-0.67 0.67 -0.34 0.34 0 0 Z " fill="#031638" transform="translate(942,578)"/>
<path d="M0 0 C5.94 0.99 5.94 0.99 12 2 C9.77174356 4.22825644 8.34238372 4.69239369 5.375 5.625 C4.55773437 5.88539063 3.74046875 6.14578125 2.8984375 6.4140625 C2.27195312 6.60742188 1.64546875 6.80078125 1 7 C0.01 6.01 -0.98 5.02 -2 4 C-0.68 4 0.64 4 2 4 C1.34 2.68 0.68 1.36 0 0 Z " fill="#05183C" transform="translate(906,600)"/>
<path d="M0 0 C1.04005702 3.38018531 1.08004482 6.4780279 1 10 C0.01 10.33 -0.98 10.66 -2 11 C-2 10.34 -2 9.68 -2 9 C-2.99 9 -3.98 9 -5 9 C-4.67 6.36 -4.34 3.72 -4 1 C-3.67 1.66 -3.34 2.32 -3 3 C-2.01 3 -1.02 3 0 3 C0 2.01 0 1.02 0 0 Z " fill="#09264B" transform="translate(782,586)"/>
<path d="M0 0 C2.31 0 4.62 0 7 0 C7.84098656 4.01804691 8.05404945 7.01803543 7 11 C4.8480563 7.77208445 4.79913557 6.71599191 5 3 C4.01 3.33 3.02 3.66 2 4 C1.34 3.67 0.68 3.34 0 3 C0 2.01 0 1.02 0 0 Z " fill="#092242" transform="translate(744,573)"/>
<path d="M0 0 C0.33 2.64 0.66 5.28 1 8 C-2 8 -2 8 -4 7 C-4.71727778 5.35448038 -5.38325228 3.68577711 -6 2 C-6.33 1.34 -6.66 0.68 -7 0 C-3.98968256 -0.93423645 -3.13349732 -1.04449911 0 0 Z " fill="#0C284D" transform="translate(691,582)"/>
<path d="M0 0 C0.33 0 0.66 0 1 0 C0.67 5.94 0.34 11.88 0 18 C-0.33 18 -0.66 18 -1 18 C-1.04898438 17.14535156 -1.09796875 16.29070312 -1.1484375 15.41015625 C-1.22320312 14.30542969 -1.29796875 13.20070313 -1.375 12.0625 C-1.44460937 10.96035156 -1.51421875 9.85820312 -1.5859375 8.72265625 C-1.72257813 7.82417969 -1.85921875 6.92570312 -2 6 C-2.66 5.67 -3.32 5.34 -4 5 C-2.69254251 3.31295807 -1.35827971 1.64639965 0 0 Z " fill="#041636" transform="translate(150,327)"/>
<path d="M0 0 C5.5 1.46666667 5.5 1.46666667 7.875 4 C9 6 9 6 9 8 C6.1875 7.9375 6.1875 7.9375 3 7 C1.5073959 4.72555566 0.85757989 2.62038301 0 0 Z " fill="#02234B" transform="translate(588,574)"/>
<path d="M0 0 C6 3 6 3 12 6 C8.7 6.33 5.4 6.66 2 7 C0.4375 4.625 0.4375 4.625 -1 2 C-0.67 1.34 -0.34 0.68 0 0 Z " fill="#062950" transform="translate(651,600)"/>
<path d="M0 0 C0.33 0.66 0.66 1.32 1 2 C1.99 2 2.98 2 4 2 C5.2077558 5.62326739 4.54311128 6.64146369 3 10 C0 8 0 8 -0.75 5.5625 C-1 3 -1 3 0 0 Z " fill="#0D2A4F" transform="translate(668,594)"/>
<path d="M0 0 C0.99 0 1.98 0 3 0 C3 0.99 3 1.98 3 3 C3.99 3.33 4.98 3.66 6 4 C5 6 5 6 1.9375 7.125 C0.968125 7.41375 -0.00125 7.7025 -1 8 C-0.67 5.36 -0.34 2.72 0 0 Z " fill="#0E284B" transform="translate(717,581)"/>
<path d="M0 0 C0.66 0.33 1.32 0.66 2 1 C1 4 1 4 -0.9609375 4.984375 C-1.75757813 5.23703125 -2.55421875 5.4896875 -3.375 5.75 C-4.56222656 6.14445313 -4.56222656 6.14445313 -5.7734375 6.546875 C-8 7 -8 7 -11 6 C-9.21385682 4.96953278 -7.42089982 3.95086764 -5.625 2.9375 C-4.62726563 2.36902344 -3.62953125 1.80054688 -2.6015625 1.21484375 C-1.74304688 0.81394531 -0.88453125 0.41304687 0 0 Z " fill="#0B1330" transform="translate(335,645)"/>
<path d="M0 0 C4.59306496 1.4859916 7.43569245 3.85014682 11 7 C9 8 9 8 5.5 6.875 C2 5 2 5 0.5625 2.3125 C0.376875 1.549375 0.19125 0.78625 0 0 Z " fill="#E9EDF1" transform="translate(201,617)"/>
<path d="M0 0 C-0.33 2.31 -0.66 4.62 -1 7 C-2.65 6.67 -4.3 6.34 -6 6 C-6 5.01 -6 4.02 -6 3 C-2.66666667 0 -2.66666667 0 0 0 Z " fill="#02193D" transform="translate(722,586)"/>
<path d="M0 0 C0.66 0.33 1.32 0.66 2 1 C2.40729228 3.32156597 2.74438677 5.6568787 3 8 C2.01 8 1.02 8 0 8 C-0.33 8.99 -0.66 9.98 -1 11 C-2.41687119 6.74938644 -1.19320039 4.28148375 0 0 Z " fill="#DDE4E9" transform="translate(703,581)"/>
<path d="M0 0 C1.65 0 3.3 0 5 0 C4.67 4.29 4.34 8.58 4 13 C3.67 13 3.34 13 3 13 C3 10.36 3 7.72 3 5 C2.01 5 1.02 5 0 5 C0 3.35 0 1.7 0 0 Z " fill="#203A5B" transform="translate(571,581)"/>
<path d="M0 0 C2.09350689 3.4019487 2.17942163 6.05272412 2 10 C0.35 10.33 -1.3 10.66 -3 11 C-2.67 10.01 -2.34 9.02 -2 8 C-2.33 7.67 -2.66 7.34 -3 7 C-2.67 6.34 -2.34 5.68 -2 5 C-1.34 5 -0.68 5 0 5 C0 3.35 0 1.7 0 0 Z " fill="#011235" transform="translate(751,579)"/>
<path d="M0 0 C0 3.59422497 -1.14981068 4.99344236 -3 8 C-3 8.66 -3 9.32 -3 10 C-3.66 10 -4.32 10 -5 10 C-5.33 11.98 -5.66 13.96 -6 16 C-6.33 16 -6.66 16 -7 16 C-6.74791309 8.94156662 -4.59661939 5.28540945 0 0 Z " fill="#091431" transform="translate(707,488)"/>
<path d="M0 0 C3.05477677 1.52738838 5.39755536 3.79357955 8 6 C6.02 6.99 6.02 6.99 4 8 C0 3.375 0 3.375 0 0 Z " fill="#03274E" transform="translate(952,587)"/>
<path d="M0 0 C0.33 0.66 0.66 1.32 1 2 C-3.72383963 2.65156409 -8.21974517 3.11950637 -13 3 C-8.48166204 0.66292864 -5.11018582 -0.11355968 0 0 Z " fill="#102444" transform="translate(308,283)"/>
<path d="M0 0 C1.32 0.66 2.64 1.32 4 2 C2 4 2 4 -0.1640625 4.1953125 C-1.38222656 4.16050781 -1.38222656 4.16050781 -2.625 4.125 C-3.44226563 4.10695313 -4.25953125 4.08890625 -5.1015625 4.0703125 C-5.72804688 4.04710937 -6.35453125 4.02390625 -7 4 C-7 3.34 -7 2.68 -7 2 C-4.69 2 -2.38 2 0 2 C0 1.34 0 0.68 0 0 Z " fill="#042850" transform="translate(952,602)"/>
<path d="M0 0 C0.66 0.99 1.32 1.98 2 3 C-0.31 4.65 -2.62 6.3 -5 8 C-5.33 7.01 -5.66 6.02 -6 5 C-4.02 3.35 -2.04 1.7 0 0 Z " fill="#092244" transform="translate(652,573)"/>
<path d="M0 0 C1.65 0 3.3 0 5 0 C4.67 2.31 4.34 4.62 4 7 C2.68 6.34 1.36 5.68 0 5 C0 3.35 0 1.7 0 0 Z " fill="#011436" transform="translate(777,595)"/>
<path d="M0 0 C0.33 0.66 0.66 1.32 1 2 C1.66 2 2.32 2 3 2 C3.1875 4.375 3.1875 4.375 3 7 C2.01 7.66 1.02 8.32 0 9 C-0.84454356 5.62182575 -1.10844919 3.32534757 0 0 Z " fill="#112B4E" transform="translate(696,589)"/>
<path d="M0 0 C0.66 0.33 1.32 0.66 2 1 C2.59355614 3.64860427 2.74209269 6.29197322 3 9 C1.68 8.67 0.36 8.34 -1 8 C-0.67 5.36 -0.34 2.72 0 0 Z " fill="#E5EAED" transform="translate(765,581)"/>
<path d="M0 0 C1.98 0 3.96 0 6 0 C5.67 1.98 5.34 3.96 5 6 C4.67 5.34 4.34 4.68 4 4 C3.01 4 2.02 4 1 4 C0.67 2.68 0.34 1.36 0 0 Z " fill="#042248" transform="translate(682,574)"/>
<path d="M0 0 C0.66 0.33 1.32 0.66 2 1 C2.625 3.0625 2.625 3.0625 3 5 C1.5199159 4.88637738 0.04089926 4.75877092 -1.4375 4.625 C-2.26121094 4.55539062 -3.08492187 4.48578125 -3.93359375 4.4140625 C-4.61550781 4.27742187 -5.29742188 4.14078125 -6 4 C-6.33 3.34 -6.66 2.68 -7 2 C-4.69 2 -2.38 2 0 2 C0 1.34 0 0.68 0 0 Z " fill="#06294E" transform="translate(662,572)"/>
<path d="M0 0 C0.33 0 0.66 0 1 0 C1 2.31 1 4.62 1 7 C1.66 7.33 2.32 7.66 3 8 C1.35 8.66 -0.3 9.32 -2 10 C-1.34 6.7 -0.68 3.4 0 0 Z " fill="#0E294C" transform="translate(754,592)"/>
<path d="M0 0 C0.66 0.33 1.32 0.66 2 1 C1.34 4.3 0.68 7.6 0 11 C-0.66 11 -1.32 11 -2 11 C-1.34 7.37 -0.68 3.74 0 0 Z " fill="#012750" transform="translate(760,589)"/>
<path d="M0 0 C-0.33 1.65 -0.66 3.3 -1 5 C-2.65 5 -4.3 5 -6 5 C-4.87312259 1.61936778 -3.78825335 0 0 0 Z " fill="#00234D" transform="translate(717,601)"/>
<path d="M0 0 C2.78637633 4.1795645 1.79562512 6.14668677 1 11 C0.67 11 0.34 11 0 11 C-0.19406478 9.35492782 -0.38007935 7.70890406 -0.5625 6.0625 C-0.66691406 5.14597656 -0.77132812 4.22945312 -0.87890625 3.28515625 C-0.91886719 2.53105469 -0.95882812 1.77695312 -1 1 C-0.67 0.67 -0.34 0.34 0 0 Z " fill="#EFF2F4" transform="translate(713,589)"/>
<path d="M0 0 C0.99 0.66 1.98 1.32 3 2 C-0.625 6.875 -0.625 6.875 -4 8 C-4 7.34 -4 6.68 -4 6 C-3.01 5.34 -2.02 4.68 -1 4 C-1 3.01 -1 2.02 -1 1 C-0.67 0.67 -0.34 0.34 0 0 Z " fill="#020F32" transform="translate(591,599)"/>
<path d="M0 0 C0.99 0 1.98 0 3 0 C2.67 1.98 2.34 3.96 2 6 C1.01 6 0.02 6 -1 6 C-1.33 5.34 -1.66 4.68 -2 4 C-1.0625 1.875 -1.0625 1.875 0 0 Z " fill="#0C2A51" transform="translate(707,581)"/>
<path d="M0 0 C0.33 0.99 0.66 1.98 1 3 C-0.8125 6 -0.8125 6 -3 9 C-3.66 9.99 -4.32 10.98 -5 12 C-4.52389341 7.00088076 -2.96837781 4.02167317 0 0 Z " fill="#030E2E" transform="translate(719,428)"/>
<path d="M0 0 C0.99 0.33 1.98 0.66 3 1 C2.67 3.31 2.34 5.62 2 8 C1.34 8 0.68 8 0 8 C0 5.36 0 2.72 0 0 Z " fill="#E5ECF0" transform="translate(755,591)"/>
<path d="M0 0 C0.625 1.8125 0.625 1.8125 1 4 C0.01 5.485 0.01 5.485 -1 7 C-1.66 7 -2.32 7 -3 7 C-3.1875 4.625 -3.1875 4.625 -3 2 C-2.01 1.34 -1.02 0.68 0 0 Z " fill="#01274E" transform="translate(784,578)"/>
<path d="M0 0 C-1.06546953 2.13093906 -2.29159719 3.36587557 -4 5 C-4.99 4.01 -5.98 3.02 -7 2 C-4 0 -4 0 0 0 Z " fill="#0A2A51" transform="translate(375,570)"/>
<path d="M0 0 C3.875 1.75 3.875 1.75 5 4 C2.625 4.625 2.625 4.625 0 5 C-0.66 4.34 -1.32 3.68 -2 3 C-1.34 2.34 -0.68 1.68 0 1 C0 0.67 0 0.34 0 0 Z " fill="#0E2549" transform="translate(336,644)"/>
<path d="M0 0 C0.33 0.66 0.66 1.32 1 2 C2.65 1.67 4.3 1.34 6 1 C6.33 1.99 6.66 2.98 7 4 C4.69 4 2.38 4 0 4 C0 2.68 0 1.36 0 0 Z " fill="#05112E" transform="translate(630,603)"/>
<path d="M0 0 C0.33 0.66 0.66 1.32 1 2 C3.02463255 2.65213292 3.02463255 2.65213292 5 3 C4.67 3.99 4.34 4.98 4 6 C4 5.34 4 4.68 4 4 C3.34 4 2.68 4 2 4 C1.67 5.32 1.34 6.64 1 8 C0.67 5.36 0.34 2.72 0 0 Z " fill="#010F30" transform="translate(770,594)"/>
<path d="M0 0 C1.32 0 2.64 0 4 0 C3.34 1.98 2.68 3.96 2 6 C1.01 6 0.02 6 -1 6 C-0.67 4.02 -0.34 2.04 0 0 Z " fill="#0E2D52" transform="translate(709,595)"/>
<path d="M0 0 C1.32 0.33 2.64 0.66 4 1 C3.67 3.31 3.34 5.62 3 8 C2.67 8 2.34 8 2 8 C1.855625 7.236875 1.71125 6.47375 1.5625 5.6875 C1.0367406 2.91827092 1.0367406 2.91827092 0 0 Z " fill="#011031" transform="translate(699,579)"/>
</svg>
